<svg xmlns="http://www.w3.org/2000/svg" width="1080" height="1080" viewBox="0 0 1080 1080">
  <g id="Group_1168" data-name="Group 1168" transform="translate(12818 23073)">
    <rect id="Rectangle_109" data-name="Rectangle 109" width="1080" height="1080" transform="translate(-12818 -23073)" fill="#fff"/>
    <g id="Group_1167" data-name="Group 1167" transform="translate(139.803 1660.803)">
      <circle id="Ellipse_1" data-name="Ellipse 1" cx="400" cy="400" r="400" transform="translate(-12817.803 -24593.803)" fill="#092e20"/>
      <g id="Group_1161" data-name="Group 1161" transform="translate(-12641.986 -24316.221)">
        <path id="Path_1" data-name="Path 1" d="M-81.818-103.434q0,17.537,7.879,28.211t23.382,10.675q5.083,0,9.4-.381t7.116-.89V-134.7a32.9,32.9,0,0,0-9.277-3.812,44.7,44.7,0,0,0-11.564-1.525Q-81.818-140.033-81.818-103.434ZM3.832-39.9q-5.083,1.525-11.691,2.923t-13.851,2.414q-7.243,1.017-14.741,1.652t-14.36.635A84.054,84.054,0,0,1-80.293-37.1a59.228,59.228,0,0,1-21.857-13.852,60.108,60.108,0,0,1-13.6-21.857,83.417,83.417,0,0,1-4.7-28.847,98.744,98.744,0,0,1,4.066-29.355,63.885,63.885,0,0,1,11.691-22.239,50.041,50.041,0,0,1,18.68-13.979,62.628,62.628,0,0,1,25.288-4.829,59.477,59.477,0,0,1,14.106,1.525,76.344,76.344,0,0,1,12.581,4.321V-226.7l37.869-6.1ZM26.96,11.444q-3.558,0-10.547-.762a62.846,62.846,0,0,1-13.089-2.8L8.407-22.867A44.608,44.608,0,0,0,15.4-21.088a52.122,52.122,0,0,0,8.006.508q8.9,0,12.454-5.337t3.558-15.5V-169.261H77.283V-40.4q0,26.432-12.962,39.14T26.96,11.444ZM80.841-207.893q0,10.42-6.735,16.393a23.164,23.164,0,0,1-15.885,5.973A23.163,23.163,0,0,1,42.337-191.5Q35.6-197.472,35.6-207.893t6.735-16.393a23.164,23.164,0,0,1,15.885-5.973,23.164,23.164,0,0,1,15.885,5.973Q80.841-218.313,80.841-207.893Z" transform="translate(120.45 232.8)" fill="#fff"/>
        <g id="Group_1160" data-name="Group 1160" transform="translate(238.131 0)">
          <g id="Path_2" data-name="Path 2" transform="translate(84.649 210.3)" fill="#fff">
            <path d="M 142.9143218994141 16.16229820251465 L 126.0493927001953 16.16229820251465 L 63.89023971557617 16.16229820251465 L 58.45285797119141 16.16229820251465 L 55.49697113037109 11.59856796264648 L 41.71258544921875 -9.721431732177734 C 37.15504837036133 -16.78270149230957 32.48031616210938 -23.6423168182373 27.68808746337891 -30.30008697509766 C 22.88335609436035 -36.97516250610352 18.13727951049805 -43.2965087890625 13.44931793212891 -49.26366424560547 C 9.871524810791016 -53.81772613525391 6.262331485748291 -58.07436370849609 2.683990478515625 -61.96177673339844 L -10.44591331481934 -61.96177673339844 L -10.44591331481934 6.162298679351807 L -10.44591331481934 16.16229820251465 L -20.44591331481934 16.16229820251465 L -76.04998779296875 16.16229820251465 L -86.04998779296875 16.16229820251465 L -86.04998779296875 6.162298679351807 L -86.04998779296875 -204.7417755126953 L -86.04998779296875 -213.1863555908203 L -77.72463989257812 -214.6005401611328 C -65.3193359375 -216.7077789306641 -52.31756591796875 -218.2030029296875 -39.08052825927734 -219.0447082519531 C -25.97999000549316 -219.8776245117188 -14.07406711578369 -220.2999725341797 -3.693451404571533 -220.3000030517578 C 34.98593139648438 -220.2999725341797 65.33389282226562 -214.0807342529297 86.50746917724609 -201.8150482177734 C 109.4475479125977 -188.5261688232422 121.0791244506836 -167.6934661865234 121.0791244506836 -139.8957366943359 C 121.0791244506836 -122.4993515014648 116.2609329223633 -108.0093536376953 106.7583923339844 -96.82816314697266 C 100.2701568603516 -89.19377136230469 91.77199554443359 -82.71421051025391 81.39641571044922 -77.47515106201172 C 83.65199279785156 -74.79708099365234 85.94429016113281 -71.98912048339844 88.26285552978516 -69.06350708007812 C 93.80939483642578 -62.06473922729492 99.37035369873047 -54.65320205688477 104.7912826538086 -47.03470230102539 C 110.243782043457 -39.37181854248047 115.5866622924805 -31.28520202636719 120.6714706420898 -22.99946975708008 C 125.7250900268555 -14.76443195343018 130.4865112304688 -6.567124366760254 134.8234710693359 1.364875435829163 L 142.9143218994141 16.16229820251465 Z M -10.44591331481934 -120.2518157958984 L -4.762720584869385 -120.2518157958984 C 19.20535659790039 -120.2518157958984 30.45131874084473 -123.3689346313477 35.66497039794922 -125.9838943481445 C 41.29201126098633 -128.8061676025391 43.69285583496094 -133.0590515136719 43.69285583496094 -140.2045135498047 C 43.69281768798828 -146.8475494384766 41.27701187133789 -150.8507080078125 35.61497116088867 -153.5900115966797 C 27.87824058532715 -157.3329772949219 15.73224067687988 -159.2308197021484 -0.4855283200740814 -159.2308502197266 C -4.173948287963867 -159.2308502197266 -7.494214057922363 -159.1418151855469 -10.44591331481934 -158.9596252441406 L -10.44591331481934 -120.2518157958984 Z" stroke="none"/>
            <path d="M -3.693397521972656 -210.3000030517578 C -13.91124725341797 -210.2999572753906 -25.49544525146484 -209.8882598876953 -38.44594573974609 -209.0648498535156 C -51.39649963378906 -208.2414093017578 -63.93114471435547 -206.8003540039062 -76.04999542236328 -204.7417602539062 L -76.04999542236328 6.16229248046875 L -20.44594573974609 6.16229248046875 L -20.44594573974609 -71.96176147460938 L 6.999702453613281 -71.96176147460938 C 11.770751953125 -67.02110290527344 16.54180145263672 -61.51435852050781 21.31285285949707 -55.44145202636719 C 26.08385276794434 -49.36856079101562 30.91430282592773 -42.93545532226562 35.80420303344727 -36.14205932617188 C 40.69405364990234 -29.34864807128906 45.46415328979492 -22.34941101074219 50.11455154418945 -15.14425659179688 C 54.76495361328125 -7.93914794921875 59.35685348510742 -0.837005615234375 63.89025115966797 6.16229248046875 L 126.0494003295898 6.16229248046875 C 121.7721557617188 -1.660400390625 117.1385040283203 -9.63751220703125 112.1484069824219 -17.76901245117188 C 107.1582489013672 -25.9005126953125 101.9899520874023 -33.72315979003906 96.64344787597656 -41.23710632324219 C 91.29690551757812 -48.75100708007812 85.89095306396484 -55.95610046386719 80.42559814453125 -62.85246276855469 C 74.960205078125 -69.74874877929688 69.73245239257812 -75.87310791015625 64.74235534667969 -81.22550201416016 C 79.71269989013672 -86.57785797119141 91.17805480957031 -93.93735504150391 99.13850402832031 -103.3040542602539 C 107.0989074707031 -112.670654296875 111.0791015625 -124.8679046630859 111.0791015625 -139.895751953125 C 111.0791015625 -163.9814147949219 101.2176971435547 -181.7369079589844 81.49490356445312 -193.162109375 C 61.77205276489258 -204.5873565673828 33.37595367431641 -210.2999572753906 -3.693397521972656 -210.3000030517578 M -4.762748718261719 -110.2518081665039 L -20.44594573974609 -110.2518081665039 L -20.44594573974609 -168.3044586181641 C -17.59444427490234 -168.5103607177734 -14.56475067138672 -168.7162017822266 -11.35679626464844 -168.9220581054688 C -8.148899078369141 -169.1278991699219 -4.525096893310547 -169.2308502197266 -0.4854965209960938 -169.2308502197266 C 17.33635330200195 -169.2308502197266 30.82150268554688 -167.0178527832031 39.97005462646484 -162.5918579101562 C 49.11855316162109 -158.1658630371094 53.69285202026367 -150.7033996582031 53.69285202026367 -140.2045593261719 C 53.69285202026367 -129.2939147949219 49.17800140380859 -121.5741577148438 40.14825439453125 -117.0452041625977 C 31.11855316162109 -112.5163040161133 16.14820098876953 -110.2518081665039 -4.762748718261719 -110.2518081665039 M -3.693496704101562 -230.3000030517578 L -3.693347930908203 -230.3000030517578 C 37.33900451660156 -230.2999572753906 68.48360443115234 -223.8128509521484 91.52005004882812 -210.4680480957031 C 117.3998031616211 -195.4762115478516 131.0791015625 -171.0727081298828 131.0791015625 -139.895751953125 C 131.0791015625 -120.0605545043945 125.4601516723633 -103.3917083740234 114.3782501220703 -90.35220336914062 C 109.4126129150391 -84.50936126708984 103.4537200927734 -79.285400390625 96.54696655273438 -74.70988464355469 C 102.0516357421875 -67.7432861328125 107.5642623901367 -60.38609313964844 112.9391479492188 -52.83235168457031 C 118.5226058959961 -44.98541259765625 123.9916534423828 -36.7080078125 129.1945037841797 -28.22990417480469 C 134.3349609375 -19.85345458984375 139.1808013916016 -11.51045227050781 143.5975494384766 -3.432601928710938 L 159.779296875 26.16229248046875 L 53.0155029296875 26.16229248046875 L 33.31070327758789 -4.298507690429688 C 28.8459529876709 -11.21604919433594 24.26655197143555 -17.93600463867188 19.57195281982422 -24.45816040039062 C 14.85235214233398 -31.01495361328125 10.19065093994141 -37.22445678710938 5.585750579833984 -43.08590698242188 C 3.578506469726562 -45.640869140625 1.564128875732422 -48.09432983398438 -0.4459457397460938 -50.43305969238281 L -0.4459457397460938 26.16229248046875 L -96.05000305175781 26.16229248046875 L -96.05000305175781 -221.6309051513672 L -79.39935302734375 -224.4593048095703 C -66.6510009765625 -226.6248474121094 -53.29930114746094 -228.1607971191406 -39.71504974365234 -229.0245513916016 C -26.40470123291016 -229.8708038330078 -14.28530120849609 -230.2999572753906 -3.693496704101562 -230.3000030517578 Z M -0.4459457397460938 -130.2885284423828 C 20.38262557983398 -130.6512756347656 28.55602264404297 -133.6056823730469 31.18175315856934 -134.922607421875 C 32.85365295410156 -135.7611541748047 33.69285202026367 -136.1820983886719 33.69285202026367 -140.2045593261719 C 33.69285202026367 -143.4111022949219 33.1775016784668 -143.6604614257812 31.25995254516602 -144.5881500244141 C 27.67835807800293 -146.3208923339844 18.79863548278809 -149.2269439697266 -0.4459457397460938 -149.2308502197266 L -0.4459457397460938 -130.2885284423828 Z" stroke="none" fill="#092e20"/>
          </g>
          <g id="Path_3" data-name="Path 3" transform="translate(76.05 238.082)" fill="#fff">
            <path d="M 142.914306640625 16.16229820251465 L 126.0493774414062 16.16229820251465 L 63.89022445678711 16.16229820251465 L 58.45284271240234 16.16229820251465 L 55.49695587158203 11.59856796264648 L 41.71257019042969 -9.721431732177734 C 37.15503311157227 -16.78270149230957 32.48030090332031 -23.6423168182373 27.68807220458984 -30.30008697509766 C 22.88334083557129 -36.97516250610352 18.13726425170898 -43.2965087890625 13.44930267333984 -49.26366424560547 C 9.871540069580078 -53.81766891479492 6.262372493743896 -58.07432174682617 2.684005260467529 -61.96177673339844 L -10.4459285736084 -61.96177673339844 L -10.4459285736084 6.162298679351807 L -10.4459285736084 16.16229820251465 L -20.4459285736084 16.16229820251465 L -76.05000305175781 16.16229820251465 L -86.05000305175781 16.16229820251465 L -86.05000305175781 6.162298679351807 L -86.05000305175781 -204.7417755126953 L -86.05000305175781 -213.1863555908203 L -77.72465515136719 -214.6005401611328 C -65.31935119628906 -216.7077789306641 -52.31758117675781 -218.2030029296875 -39.08054351806641 -219.0447082519531 C -25.97996711730957 -219.8776245117188 -14.07404327392578 -220.2999725341797 -3.693466663360596 -220.3000030517578 C 34.98591613769531 -220.2999725341797 65.33387756347656 -214.0807342529297 86.50745391845703 -201.8150482177734 C 109.4474945068359 -188.5261688232422 121.0790710449219 -167.6935119628906 121.0790710449219 -139.8957366943359 C 121.0790710449219 -122.4993133544922 116.2608795166016 -108.00927734375 106.7583389282227 -96.828125 C 100.2701263427734 -89.19376373291016 91.77198791503906 -82.71420288085938 81.39640808105469 -77.47514343261719 C 83.65198516845703 -74.79707336425781 85.94427490234375 -71.98912048339844 88.26284027099609 -69.06350708007812 C 93.80899810791016 -62.06523895263672 99.36995697021484 -54.65370178222656 104.7912673950195 -47.03474044799805 C 110.2438812255859 -39.37166213989258 115.5867233276367 -31.28504753112793 120.6714553833008 -22.99943161010742 C 125.7249526977539 -14.76466274261475 130.4863739013672 -6.567317008972168 134.8234558105469 1.364875435829163 L 142.914306640625 16.16229820251465 Z M -10.4459285736084 -120.2518157958984 L -4.762735843658447 -120.2518157958984 C 19.20534133911133 -120.2518157958984 30.45130348205566 -123.3689346313477 35.66495513916016 -125.9838943481445 C 41.29199600219727 -128.8061676025391 43.69284057617188 -133.0590515136719 43.69284057617188 -140.2045135498047 C 43.69280242919922 -146.8475494384766 41.27699661254883 -150.8507080078125 35.61495590209961 -153.5900115966797 C 27.87822532653809 -157.3329772949219 15.73222541809082 -159.2308197021484 -0.4855435788631439 -159.2308502197266 C -4.17396354675293 -159.2308502197266 -7.494229316711426 -159.1418151855469 -10.4459285736084 -158.9596252441406 L -10.4459285736084 -120.2518157958984 Z" stroke="none"/>
            <path d="M -3.693412780761719 -210.3000030517578 C -13.91126251220703 -210.2999572753906 -25.49546051025391 -209.8882598876953 -38.44596099853516 -209.0648498535156 C -51.39646148681641 -208.2414093017578 -63.93115997314453 -206.8003540039062 -76.05001068115234 -204.7417602539062 L -76.05001068115234 6.16229248046875 L -20.44596099853516 6.16229248046875 L -20.44596099853516 -71.96176147460938 L 6.999687194824219 -71.96176147460938 C 11.77073669433594 -67.02110290527344 16.54178619384766 -61.51435852050781 21.31283760070801 -55.44145202636719 C 26.08383750915527 -49.36856079101562 30.91428756713867 -42.93545532226562 35.8041877746582 -36.14205932617188 C 40.69403839111328 -29.34864807128906 45.46413803100586 -22.34941101074219 50.11453628540039 -15.14425659179688 C 54.76493835449219 -7.93914794921875 59.35683822631836 -0.837005615234375 63.89023590087891 6.16229248046875 L 126.0493850708008 6.16229248046875 C 121.7721405029297 -1.660400390625 117.1384887695312 -9.63751220703125 112.1483917236328 -17.76901245117188 C 107.1582336425781 -25.9005126953125 101.9898834228516 -33.72315979003906 96.64338684082031 -41.23710632324219 C 91.29683685302734 -48.75100708007812 85.89088439941406 -55.95610046386719 80.42558288574219 -62.85246276855469 C 74.96018981933594 -69.74874877929688 69.73243713378906 -75.87310791015625 64.74234008789062 -81.22550201416016 C 79.71268463134766 -86.57785797119141 91.17803955078125 -93.93735504150391 99.13843536376953 -103.3040542602539 C 107.0988388061523 -112.670654296875 111.0790863037109 -124.8679046630859 111.0790863037109 -139.895751953125 C 111.0790863037109 -163.9814147949219 101.2176818847656 -181.7369079589844 81.49483489990234 -193.162109375 C 61.77203750610352 -204.5873565673828 33.37593841552734 -210.2999572753906 -3.693412780761719 -210.3000030517578 M -4.762763977050781 -110.2518081665039 L -20.44596099853516 -110.2518081665039 L -20.44596099853516 -168.3044586181641 C -17.59445953369141 -168.5103607177734 -14.56471252441406 -168.7162017822266 -11.3568115234375 -168.9220581054688 C -8.148914337158203 -169.1278991699219 -4.525112152099609 -169.2308502197266 -0.4855117797851562 -169.2308502197266 C 17.33633804321289 -169.2308502197266 30.82148742675781 -167.0178527832031 39.97003936767578 -162.5918579101562 C 49.11853790283203 -158.1658630371094 53.69278717041016 -150.7033996582031 53.69283676147461 -140.2045593261719 C 53.69283676147461 -129.2939147949219 49.17798614501953 -121.5741577148438 40.14823913574219 -117.0452041625977 C 31.11853790283203 -112.5163040161133 16.14818572998047 -110.2518081665039 -4.762763977050781 -110.2518081665039 M -3.693511962890625 -230.3000030517578 L -3.693363189697266 -230.3000030517578 C 37.3389892578125 -230.2999572753906 68.48358917236328 -223.8128509521484 91.52003479003906 -210.4680480957031 C 117.399787902832 -195.4762573242188 131.0790863037109 -171.0727081298828 131.0790863037109 -139.895751953125 C 131.0790863037109 -120.0606079101562 125.460090637207 -103.3917541503906 114.3781890869141 -90.35220336914062 C 109.41259765625 -84.50938415527344 103.4536895751953 -79.285400390625 96.54695129394531 -74.70988464355469 C 102.0517501831055 -67.74305725097656 107.5643463134766 -60.38584899902344 112.9390869140625 -52.83235168457031 C 118.5227890014648 -44.985107421875 123.9918365478516 -36.70765686035156 129.1944885253906 -28.22990417480469 C 134.3349304199219 -19.85345458984375 139.1807861328125 -11.51045227050781 143.5975341796875 -3.432601928710938 L 159.779296875 26.16229248046875 L 53.01548767089844 26.16229248046875 L 33.31068801879883 -4.298507690429688 C 28.84593772888184 -11.21604919433594 24.26653671264648 -17.93600463867188 19.57193756103516 -24.45816040039062 C 14.85233688354492 -31.01495361328125 10.19063568115234 -37.22445678710938 5.585735321044922 -43.08590698242188 C 3.5784912109375 -45.640869140625 1.564113616943359 -48.09432983398438 -0.4459609985351562 -50.43305969238281 L -0.4459609985351562 26.16229248046875 L -96.05001831054688 26.16229248046875 L -96.05001831054688 -221.6309051513672 L -79.39936828613281 -224.4593048095703 C -66.65106201171875 -226.6248474121094 -53.29931640625 -228.1607971191406 -39.71511077880859 -229.0245513916016 C -26.40471649169922 -229.8708038330078 -14.28531646728516 -230.2999572753906 -3.693511962890625 -230.3000030517578 Z M -0.4459609985351562 -130.2885284423828 C 20.38261032104492 -130.6512756347656 28.55600738525391 -133.6056823730469 31.18173789978027 -134.922607421875 C 32.8536376953125 -135.7611541748047 33.69283676147461 -136.1820983886719 33.69283676147461 -140.2045593261719 C 33.69283676147461 -143.4111022949219 33.17743682861328 -143.6604614257812 31.25993728637695 -144.5881500244141 C 27.67834281921387 -146.3208923339844 18.79862022399902 -149.2269439697266 -0.4459609985351562 -149.2308502197266 L -0.4459609985351562 -130.2885284423828 Z" stroke="none" fill="#092e20"/>
          </g>
        </g>
      </g>
    </g>
  </g>
</svg>
