<svg xmlns="http://www.w3.org/2000/svg" width="1080" height="1080" viewBox="0 0 1080 1080">
  <g id="Group_1168" data-name="Group 1168" transform="translate(15625 22469)">
    <rect id="Rectangle_108" data-name="Rectangle 108" width="1080" height="1080" transform="translate(-15625 -22469)" fill="#092e20"/>
    <g id="Group_1167" data-name="Group 1167" transform="translate(-2786 2099.5)">
      <path id="Path_1" data-name="Path 1" d="M-62.048-37.229q0,26.512,11.911,42.649t35.349,16.137q7.684,0,14.216-.576t10.758-1.345V-84.489A49.745,49.745,0,0,0-3.838-90.252,67.572,67.572,0,0,0-21.32-92.558Q-62.048-92.558-62.048-37.229ZM67.436,58.827q-7.685,2.305-17.674,4.419T28.821,66.9q-10.95,1.537-22.285,2.5t-21.709.961q-24.975,0-44.57-7.3a89.539,89.539,0,0,1-33.043-20.94A90.869,90.869,0,0,1-113.342,9.07q-7.108-19.4-7.108-43.61,0-24.59,6.148-44.378t17.674-33.62A75.651,75.651,0,0,1-68.388-133.67q16.714-7.3,38.23-7.3a89.916,89.916,0,0,1,21.324,2.305,115.414,115.414,0,0,1,19.019,6.532v-91.446L67.436-232.8ZM102.4,136.441q-5.379,0-15.945-1.153a95.008,95.008,0,0,1-19.788-4.226L74.352,84.57a67.437,67.437,0,0,0,10.566,2.69,78.8,78.8,0,0,0,12.1.768q13.448,0,18.827-8.069t5.379-23.438V-136.744h57.249v194.8q0,39.959-19.6,59.171T102.4,136.441Zm81.456-331.587q0,15.753-10.182,24.783a35.018,35.018,0,0,1-24.014,9.029,35.018,35.018,0,0,1-24.014-9.029q-10.182-9.029-10.182-24.783t10.182-24.783a35.018,35.018,0,0,1,24.014-9.029,35.018,35.018,0,0,1,24.014,9.029Q183.856-210.9,183.856-195.146Z" transform="translate(-12517.55 -23980.699)" fill="#fff"/>
      <g id="Group_1160" data-name="Group 1160" transform="translate(0 56.961)">
        <g id="Path_2" data-name="Path 2" transform="translate(-12188.95 -24060.16)" fill="#fff">
          <path d="M 246.3427886962891 126.9411239624023 L 229.477783203125 126.9411239624023 L 135.5074310302734 126.9411239624023 L 130.0700836181641 126.9411239624023 L 127.1141815185547 122.3774185180664 L 106.27978515625 90.15337371826172 C 99.37373352050781 79.45342254638672 92.19118499755859 68.91422271728516 84.93163299560547 58.82867050170898 C 77.65563201904297 48.72027206420898 70.36983489990234 39.01692199707031 63.27668380737305 29.98827171325684 C 57.27599334716797 22.35020446777344 51.21184921264648 15.25085067749023 45.21029663085938 8.835521697998047 L 18.01053237915039 8.835521697998047 L 18.01053237915039 116.9411239624023 L 18.01053237915039 126.9411239624023 L 8.010532379150391 126.9411239624023 L -76.05001831054688 126.9411239624023 L -86.05001831054688 126.9411239624023 L -86.05001831054688 116.9411239624023 L -86.05001831054688 -201.8972320556641 L -86.05001831054688 -210.3418273925781 L -77.72467041015625 -211.7560272216797 C -59.14596939086914 -214.9118804931641 -39.66936874389648 -217.1514739990234 -19.83591842651367 -218.4125823974609 C -0.1391675472259521 -219.6649322509766 17.75063323974609 -220.2999267578125 33.33643341064453 -220.2999725341797 C 90.89823150634766 -220.2999267578125 135.9142303466797 -211.1298217773438 167.1341857910156 -193.0443725585938 C 200.1205749511719 -173.9357299804688 216.8460845947266 -143.9314270019531 216.8460845947266 -103.8649749755859 C 216.8460845947266 -78.81372833251953 209.9719390869141 -58.02317810058594 196.4145355224609 -42.07082748413086 C 185.8552856445312 -29.64627647399902 171.5445556640625 -19.30979537963867 153.7572174072266 -11.238600730896 C 158.5053405761719 -5.758924961090088 163.3822937011719 0.1370208710432053 168.3423309326172 6.395671844482422 C 176.6722869873047 16.90667152404785 185.0257263183594 28.0400218963623 193.1705780029297 39.48652267456055 C 201.3464813232422 50.97687149047852 209.3590393066406 63.10432052612305 216.9857330322266 75.53207397460938 C 224.5808258056641 87.9085693359375 231.7357788085938 100.2264709472656 238.2518310546875 112.143669128418 L 246.3427886962891 126.9411239624023 Z M 18.01053237915039 -69.05017852783203 L 31.71993255615234 -69.05017852783203 C 61.61393356323242 -69.05017852783203 82.94873046875 -72.14842987060547 95.13168334960938 -78.25892639160156 C 105.3377838134766 -83.37783050537109 110.0912857055664 -91.66268157958984 110.0912857055664 -104.3317794799805 C 110.0912857055664 -116.2962265014648 105.2928848266602 -124.1901245117188 94.99048614501953 -129.1744232177734 C 82.59363555908203 -135.171875 63.48188400268555 -138.2128753662109 38.18613433837891 -138.2128753662109 C 32.31718063354492 -138.2128753662109 27.05223274230957 -138.065673828125 22.39163208007812 -137.7666320800781 C 20.90580749511719 -137.6712646484375 19.44549179077148 -137.5759124755859 18.01053237915039 -137.4805603027344 L 18.01053237915039 -69.05017852783203 Z" stroke="none"/>
          <path d="M 33.33650970458984 -210.3000030517578 C 17.88945007324219 -210.2999420166016 0.3768157958984375 -209.6775665283203 -19.20137023925781 -208.4327545166016 C -38.77955627441406 -207.1878814697266 -57.72911071777344 -205.0093078613281 -76.04998779296875 -201.8972473144531 L -76.04998779296875 116.9411163330078 L 8.010574340820312 116.9411163330078 L 8.010574340820312 -1.164443969726562 L 49.50200653076172 -1.164443969726562 C 56.71469116210938 6.304679870605469 63.92744445800781 14.62961578369141 71.14019775390625 23.81043243408203 C 78.35288238525391 32.99124145507812 85.65544128417969 42.7166748046875 93.04776000976562 52.98674011230469 C 100.440071105957 63.25674438476562 107.6514434814453 73.83805847167969 114.6816940307617 84.73049926757812 C 121.7120666503906 95.62300109863281 128.6539459228516 106.35986328125 135.5074462890625 116.9411163330078 L 229.4777526855469 116.9411163330078 C 223.0115661621094 105.114990234375 216.0065002441406 93.05543518066406 208.4626312255859 80.76249694824219 C 200.9187622070312 68.46961975097656 193.1053771972656 56.64349365234375 185.0226898193359 45.2841796875 C 176.93994140625 33.92486572265625 168.7673797607422 23.03237152099609 160.5050659179688 12.60674285888672 C 152.2426300048828 2.181121826171875 144.3395080566406 -7.077507019042969 136.7956390380859 -15.1690673828125 C 159.4273223876953 -23.26062774658203 176.7603149414062 -34.38650512695312 188.7946319580078 -48.54675674438477 C 200.8289489746094 -62.70694351196289 206.8460693359375 -81.14631652832031 206.8460693359375 -103.8649444580078 C 206.8460693359375 -140.2769470214844 191.9379425048828 -167.119140625 162.1215667724609 -184.3914489746094 C 132.3051910400391 -201.663818359375 89.37688446044922 -210.2999420166016 33.33650970458984 -210.3000030517578 M 31.71994781494141 -59.05019378662109 L 8.010574340820312 -59.05019378662109 L 8.010574340820312 -146.8124389648438 C 12.32131958007812 -147.1236267089844 16.90156555175781 -147.434814453125 21.75119018554688 -147.7460632324219 C 26.60082244873047 -148.0572509765625 32.07913208007812 -148.2128753662109 38.18613433837891 -148.2128753662109 C 65.12863159179688 -148.2128753662109 85.51512908935547 -144.8673095703125 99.34562683105469 -138.1762542724609 C 113.1760101318359 -131.4851379394531 120.0912628173828 -120.2036895751953 120.0913238525391 -104.3317565917969 C 120.0913238525391 -87.83744049072266 113.2658843994141 -76.16694641113281 99.61500549316406 -69.3201904296875 C 85.96413421630859 -62.47356796264648 63.33244323730469 -59.05019378662109 31.71994781494141 -59.05019378662109 M 33.33644866943359 -230.3000030517578 L 33.33650970458984 -230.3000030517578 C 93.51725769042969 -230.2999420166016 138.9224395751953 -220.9439392089844 172.1467590332031 -201.6973876953125 C 207.9313201904297 -180.9677581787109 226.8460693359375 -147.1378173828125 226.8460693359375 -103.8649444580078 C 226.8460693359375 -76.37493896484375 219.171142578125 -53.40556716918945 204.0343780517578 -35.59494400024414 C 194.956298828125 -24.91316986083984 183.4202880859375 -15.68313598632812 169.5728454589844 -7.999771118164062 C 171.7570190429688 -5.344970703125 173.9609069824219 -2.614906311035156 176.1795043945312 0.1845550537109375 C 184.6165771484375 10.83061981201172 193.0744476318359 22.10311889648438 201.3183898925781 33.68893432617188 C 209.6255035400391 45.36361694335938 217.7642517089844 57.68186950683594 225.5087585449219 70.30162048339844 C 233.1912536621094 82.8204345703125 240.4306945800781 95.2840576171875 247.0259399414062 107.3462371826172 L 263.2075805664062 136.9411163330078 L 124.6327590942383 136.9411163330078 L 97.87782287597656 95.57624816894531 C 91.06313323974609 85.01780700683594 83.97676086425781 74.61967468261719 76.81550598144531 64.67068481445312 C 69.62113189697266 54.67555236816406 62.42031860351562 45.08525085449219 55.41313171386719 36.16600036621094 C 50.56245422363281 29.99174499511719 45.67650604248047 24.18814086914062 40.82485198974609 18.83555603027344 L 28.01056671142578 18.83555603027344 L 28.01056671142578 136.9411163330078 L -96.04998779296875 136.9411163330078 L -96.04998779296875 -218.7864379882812 L -79.39930725097656 -221.6148223876953 C -60.47755432128906 -224.8289489746094 -40.65098571777344 -227.1092529296875 -20.47048950195312 -228.3924407958984 C -0.563812255859375 -229.6581268310547 17.53944396972656 -230.2999420166016 33.33644866943359 -230.3000030517578 Z M 31.71994781494141 -79.05019378662109 C 66.99881744384766 -79.05019378662109 83.23788452148438 -83.48081970214844 90.64857482910156 -87.1976318359375 C 96.31638336181641 -90.04038238525391 100.0913238525391 -94.04212951660156 100.0913238525391 -104.3317565917969 C 100.0912628173828 -112.5443801879883 97.52850341796875 -116.8377532958984 90.63544464111328 -120.1725692749023 C 83.05381774902344 -123.8405075073242 67.79988098144531 -128.2128753662109 38.18613433837891 -128.2128753662109 C 34.55295562744141 -128.2128753662109 31.16114807128906 -128.1550903320312 28.01056671142578 -128.0370178222656 L 28.01056671142578 -79.05019378662109 L 31.71994781494141 -79.05019378662109 Z" stroke="none" fill="#092e20"/>
        </g>
        <g id="Path_3" data-name="Path 3" transform="translate(-12201.95 -24018.16)" fill="#fff">
          <path d="M 246.3427581787109 126.9411239624023 L 229.4777526855469 126.9411239624023 L 135.5074005126953 126.9411239624023 L 130.0700531005859 126.9411239624023 L 127.1141510009766 122.3774185180664 L 106.2797546386719 90.15337371826172 C 99.37370300292969 79.45342254638672 92.19115447998047 68.91422271728516 84.93160247802734 58.82867050170898 C 77.65560150146484 48.72027206420898 70.36980438232422 39.01692199707031 63.27665328979492 29.98827171325684 C 57.27622222900391 22.35050582885742 51.21203231811523 15.25106811523438 45.21027374267578 8.835521697998047 L 18.01055145263672 8.835521697998047 L 18.01055145263672 116.9411239624023 L 18.01055145263672 126.9411239624023 L 8.010551452636719 126.9411239624023 L -76.04999542236328 126.9411239624023 L -86.04999542236328 126.9411239624023 L -86.04999542236328 116.9411239624023 L -86.04999542236328 -201.8972320556641 L -86.04999542236328 -210.3418273925781 L -77.72464752197266 -211.7560272216797 C -59.14594650268555 -214.9118804931641 -39.66934967041016 -217.1514739990234 -19.83589744567871 -218.4125823974609 C -0.1391480714082718 -219.6649322509766 17.75065231323242 -220.2999267578125 33.33645248413086 -220.2999725341797 C 90.89820098876953 -220.2999267578125 135.9141998291016 -211.1298217773438 167.1341552734375 -193.0443725585938 C 200.1205444335938 -173.9357299804688 216.8460540771484 -143.9314270019531 216.8460540771484 -103.8649749755859 C 216.8460540771484 -78.81372833251953 209.9719085693359 -58.02317810058594 196.4145050048828 -42.07082748413086 C 185.8551635742188 -29.64623641967773 171.5444946289062 -19.30976104736328 153.7571868896484 -11.23859024047852 C 158.5052795410156 -5.758942127227783 163.3820953369141 0.1368730515241623 168.3422546386719 6.395671844482422 C 176.6726989746094 16.90727233886719 185.0261535644531 28.04067230224609 193.1705017089844 39.48652267456055 C 201.3464050292969 50.97687149047852 209.3590087890625 63.10432052612305 216.9856567382812 75.53207397460938 C 224.5810546875 87.90907287597656 231.7360534667969 100.2269744873047 238.2518005371094 112.143669128418 L 246.3427581787109 126.9411239624023 Z M 18.01055145263672 -69.05017852783203 L 31.71990203857422 -69.05017852783203 C 61.61395263671875 -69.05017852783203 82.94875335693359 -72.14842987060547 95.13165283203125 -78.25892639160156 C 105.3377990722656 -83.37787628173828 110.0913009643555 -91.66268157958984 110.0913009643555 -104.3317794799805 C 110.0912551879883 -116.2962265014648 105.2929000854492 -124.1901245117188 94.99050140380859 -129.1744232177734 C 82.59365081787109 -135.171875 63.48190307617188 -138.2128753662109 38.18615341186523 -138.2128753662109 C 32.3171501159668 -138.2128753662109 27.0522518157959 -138.065673828125 22.3916015625 -137.7666320800781 C 20.90577697753906 -137.6712646484375 19.44550514221191 -137.5759124755859 18.01055145263672 -137.4805603027344 L 18.01055145263672 -69.05017852783203 Z" stroke="none"/>
          <path d="M 33.33649444580078 -210.3000030517578 C 17.88943481445312 -210.2999420166016 0.376861572265625 -209.6775665283203 -19.20138549804688 -208.4327545166016 C -38.77957153320312 -207.1878814697266 -57.7291259765625 -205.0093078613281 -76.05000305175781 -201.8972473144531 L -76.05000305175781 116.9411163330078 L 8.01055908203125 116.9411163330078 L 8.01055908203125 -1.164443969726562 L 49.50199127197266 -1.164443969726562 C 56.71467590332031 6.304679870605469 63.92742919921875 14.62961578369141 71.14018249511719 23.81043243408203 C 78.35286712646484 32.99124145507812 85.65542602539062 42.7166748046875 93.04774475097656 52.98674011230469 C 100.440055847168 63.25674438476562 107.6513671875 73.83805847167969 114.6816787719727 84.73049926757812 C 121.7119903564453 95.62300109863281 128.6539306640625 106.35986328125 135.5074310302734 116.9411163330078 L 229.4777526855469 116.9411163330078 C 223.0114898681641 105.114990234375 216.0065002441406 93.05543518066406 208.4626159667969 80.76249694824219 C 200.9186706542969 68.46961975097656 193.1053619384766 56.64349365234375 185.0226745605469 45.2841796875 C 176.9398651123047 33.92486572265625 168.7673645019531 23.03237152099609 160.5049896240234 12.60674285888672 C 152.2426147460938 2.181121826171875 144.3394927978516 -7.077507019042969 136.7956237792969 -15.1690673828125 C 159.42724609375 -23.26062774658203 176.7602386474609 -34.38650512695312 188.7946166992188 -48.54675674438477 C 200.8289337158203 -62.70694351196289 206.8460540771484 -81.14631652832031 206.8460540771484 -103.8649444580078 C 206.8460540771484 -140.2769470214844 191.9378662109375 -167.119140625 162.1215515136719 -184.3914489746094 C 132.30517578125 -201.663818359375 89.37680816650391 -210.2999420166016 33.33649444580078 -210.3000030517578 M 31.71993255615234 -59.05019378662109 L 8.01055908203125 -59.05019378662109 L 8.01055908203125 -146.8124389648438 C 12.32130432128906 -147.1236267089844 16.90155029296875 -147.434814453125 21.75117492675781 -147.7460632324219 C 26.60080718994141 -148.0572509765625 32.07911682128906 -148.2128753662109 38.18611907958984 -148.2128753662109 C 65.12861633300781 -148.2128753662109 85.51505279541016 -144.8673095703125 99.34555053710938 -138.1762542724609 C 113.1759948730469 -131.4851379394531 120.0912475585938 -120.2036895751953 120.09130859375 -104.3317565917969 C 120.09130859375 -87.83744049072266 113.265869140625 -76.16694641113281 99.614990234375 -69.3201904296875 C 85.96411895751953 -62.47356796264648 63.33242797851562 -59.05019378662109 31.71993255615234 -59.05019378662109 M 33.33643341064453 -230.3000030517578 L 33.33649444580078 -230.3000030517578 C 93.51724243164062 -230.2999420166016 138.9224243164062 -220.9439392089844 172.1467437744141 -201.6973876953125 C 207.9313049316406 -180.9676971435547 226.8460540771484 -147.1378173828125 226.8460540771484 -103.8649444580078 C 226.8460540771484 -76.37493896484375 219.1711120605469 -53.40556716918945 204.0343627929688 -35.59494400024414 C 194.9562530517578 -24.91316986083984 183.4202575683594 -15.68315124511719 169.5728149414062 -7.999786376953125 C 171.7569732666016 -5.345001220703125 173.9609375 -2.61480712890625 176.1794891357422 0.1846160888671875 C 184.6156768798828 10.82955932617188 193.0736083984375 22.10199737548828 201.318359375 33.68886566162109 C 209.625 45.36293029785156 217.7637939453125 57.68118286132812 225.5087432861328 70.30155944824219 C 233.190673828125 82.81948852539062 240.4300537109375 95.28305053710938 247.0258636474609 107.3461761474609 L 263.2076721191406 136.9411163330078 L 124.6327438354492 136.9411163330078 L 97.8778076171875 95.57618713378906 C 91.06255340576172 85.01699829101562 83.97618103027344 74.61886596679688 76.81549072265625 64.67068481445312 C 69.62111663818359 54.67555236816406 62.42030334472656 45.08525085449219 55.41311645507812 36.16600036621094 C 50.56243896484375 29.99174499511719 45.67649078369141 24.18814086914062 40.82483673095703 18.83555603027344 L 28.01055145263672 18.83555603027344 L 28.01055145263672 136.9411163330078 L -96.05000305175781 136.9411163330078 L -96.05000305175781 -218.7864379882812 L -79.39932250976562 -221.6148223876953 C -60.47756958007812 -224.8289489746094 -40.6510009765625 -227.1092529296875 -20.47050476074219 -228.3924407958984 C -0.563751220703125 -229.6581268310547 17.53948974609375 -230.2999420166016 33.33643341064453 -230.3000030517578 Z M 31.71993255615234 -79.05019378662109 C 66.99880218505859 -79.05019378662109 83.23786926269531 -83.48081970214844 90.6485595703125 -87.1976318359375 C 96.31636810302734 -90.04038238525391 100.09130859375 -94.04212951660156 100.09130859375 -104.3317565917969 C 100.0912475585938 -112.5443801879883 97.52848815917969 -116.8376922607422 90.63542938232422 -120.1725692749023 C 83.05374145507812 -123.8405075073242 67.7998046875 -128.2128753662109 38.18611907958984 -128.2128753662109 C 34.55294036865234 -128.2128753662109 31.1611328125 -128.1550903320312 28.01055145263672 -128.0370178222656 L 28.01055145263672 -79.05019378662109 L 31.71993255615234 -79.05019378662109 Z" stroke="none" fill="#092e20"/>
        </g>
      </g>
    </g>
  </g>
</svg>
